<?xml version="1.0" encoding="UTF-8"?>
<svg id="Layer_1" xmlns="http://www.w3.org/2000/svg" xmlns:xlink="http://www.w3.org/1999/xlink" version="1.1" viewBox="0 0 473.81 1206.63">
  <!-- Generator: Adobe Illustrator 30.0.0, SVG Export Plug-In . SVG Version: 2.1.1 Build 123)  -->
  <defs>
    <style>
      .st0 {
        fill: none;
      }

      .st1 {
        fill: #8f8f8f;
      }

      .st2 {
        fill: #010101;
      }

      .st3 {
        fill: #c4c4c4;
      }

      .st4 {
        fill: #fff;
      }

      .st5 {
        fill: #737373;
      }

      .st6 {
        clip-path: url(#clippath);
      }
    </style>
    <clipPath id="clippath">
      <rect class="st0" x="10.51" y="498.44" width="455.2" height="363.61"/>
    </clipPath>
  </defs>
  <g>
    <path d="M465.68,487.91H10.48v-111.89h455.2v111.89Z"/>
    <path d="M469.56,177.25c0,53.06-17.91,93.34-51.15,126.59-47.96,47.95-111.89,46.03-180.3,46.03s-132.34,1.92-180.3-46.03C24.57,270.59,6.67,230.32,6.67,177.25,6.67,90.93,54.62,21.25,155,4.63v113.8c-25.57,7.04-48.58,21.1-48.58,58.18,0,20.46,8.29,35.81,19.17,44.12,13.43,10.23,29.41,17.25,112.53,17.25s99.09-7.02,112.53-17.25c10.86-8.31,19.18-23.66,19.18-44.12,0-37.09-23.02-51.15-48.59-58.18V4.63c100.38,16.62,148.34,86.3,148.34,172.62Z"/>
    <path d="M465.71,1204.63H10.51v-323.05h99.73v197.56h76.08v-168.79h99.74v168.79h79.92v-197.56h99.72v323.05Z"/>
  </g>
  <g>
    <path class="st4" d="M49.76,483.79c-10.8,0-19.67-3.93-26.58-10.94-9.97-10.09-9.7-22.56-9.7-39.82s-.27-29.72,9.7-39.82c6.92-7.01,15.78-10.94,26.58-10.94,18.41,0,32.81,10.66,36.27,31.55h-19.53c-1.94-8-6.92-14.16-16.61-14.16-5.26,0-9.56,1.97-12.32,5.19-3.74,4.2-4.85,8.97-4.85,28.17s1.11,23.98,4.85,28.18c2.76,3.23,7.05,5.19,12.32,5.19,9.7,0,14.68-6.16,16.61-14.17h19.53c-3.47,20.9-18.01,31.55-36.27,31.55Z"/>
    <path class="st4" d="M155.75,482.95v-41.78h-33.36v41.78h-19.26v-99.82h19.26v40.8h33.36v-40.8h19.24v99.82h-19.24Z"/>
    <path class="st4" d="M236.2,483.79c-20.21,0-36.27-13.88-36.27-35.05v-65.61h19.24v64.91c0,11.5,6.65,18.37,17.03,18.37s17.17-6.87,17.17-18.37v-64.91h19.11v65.61c0,21.17-16.06,35.05-36.28,35.05Z"/>
    <path class="st4" d="M353.47,482.95l-5.81-17.67h-35.03l-5.96,17.67h-20.08l35.87-99.82h15.09l36,99.82h-20.08ZM330.51,412.56l-12.47,36.32h24.5l-12.02-36.32Z"/>
    <path class="st4" d="M444.92,482.95l-39.05-61.26v61.26h-19.25v-99.82h17.18l39.04,61.12v-61.12h19.24v99.82h-17.15Z"/>
  </g>
  <g class="st6">
    <g>
      <path d="M465.64,504.9l-190.13,98.22c-17.89-35.8-56.9-74.17-118.91-74.17-74.8,0-146.41,54.35-146.41,155.36v23.46h4.76l.42,2.01-6.41,107.41h455.2l1.48-32.08v-280.21Z"/>
      <path class="st4" d="M244.37,770.06l258.36-1.51-5.97-26.39-.22.89h-1.11l.22-3.77h-1.55l.44-5.1s-.89-7.1-4.66-7.1-5.32-.22-5.32-.22v-3.55s-1.33-8.87-7.76-8.87c-4.6,0-6.88,6.87-6.88,8.21s-.03,1.86-.03,1.86h-.83l.08,1.41h-.58l-.25,2.66h-1.25l.08,14.05-3.35-.17-.08-1-1.91-.33v-5.15l-1.7-1.17-1.66,1.62-.08,6.15-1.95.04-1.8-61.1-.76-.08-4.91-5.08v-15.45h-1.25l-.13,15.56-4.45,5.28,1.91-.59,2.53-2.51-.02,2.14-2.51.37-2.26.78-.9,49.79-4.57.17-.08,10.06.1-.08v.75h-1.5l.08-34.06-11.39-.08-2,2.74.08,30.73h-.5l-.08-1.33h-2l-.08-16.63h-7.82l-1.5,1v4.91l-1.25.08v-1.91l-1.75-1.91-4.24-.17-3.57,3.33-1.75.08-.17-5.41-5.2.08-2.79,1.33-.04,9.85h-1.25v1.96l-2,.12-.08,6.65-1.25-.13-.04-1.91-1.37.04.04,1.25h-.66l.04-1.25-2.04-.08-.04-12.47-.62-.17v-1.17l-.58-.08-.08-3.62h-.62l-.04,3.49-1.29.04-.08-2-.66.08.04-4.57-1.37-.04.04,5.86-.66.08-.04.62-.62-.04-.08,2.04-1.25.04v-.71l-1.33-.04.08-.62-2.08.08-1.37,3.99.07,5.77-2,.11-.11,3.33-1.22-.06v-1.11l-1.33-.11-.11-3.44h-.55l.06-1.22h-2.05v2.05l-4.55-.17-.11-7.37-.61-.05v-1.83l-1.39-.11v-1.83h-.61v1.89h-.67l-.06.72h-.61l-.06,4.66h-1.28l-.11,3.27h-.61l.06,1.5h-.72l.06,9.31-2-.11-.06-7.98-1.19-.06-.08-1.75h-1.58l.16,1.16h-1.5l.08-1.91-1.83-.17v.75l-7.23.08v3.33l-3.74.08-1.58-2.33v-3.08h-.75v2.66h-1.16l-.08-5.41-2.83.17v-.83l-1.25.08v-.67l-3.24.08-.08,1.25h-3.24v2.58l2.41-.17.08,1.5-2.5.08-.08,3.83-3.91.08v-2.49l-12.83.03-2.99,3.44-.33,5.65h-1.22l.55-14.64h-4.55v-1.89h-5.32l.11,1.66h-.67l-.11-1-3.33.11-.11,2.33-2.44.11-1.55,1.55-.33,21.4-5.65.33.22-.78-4.54.11-.22.89h-21.62l-1.35,18.83M448.94,680.95v-2.69l2.86,2.97-2.86-.29Z"/>
      <g>
        <path class="st4" d="M7.97,735.03l1.9-111.63h2.51v24.75h2.23v13.62h11.73v2.22h4.75v-2.5h3.07v1.39h2.23v4.73h2.79v28.64h3.91v-3.61h2.23v5.84h1.95v-1.67h3.35v-1.95h1.95v-2.5h1.68v-3.06h3.35v4.45h5.75v-16.68h5.42l1.68,1.39h4.19v15.57s1.82-.97,2.23,1.22v2.61h1.26v-3.13h2.62v-3.55h2.83v1.67h3.56v-3.13l7.75,24.77,26.73-.42,1.68-24.77v-19.81h1.68v2.71h1.68v-5.01l2.09-.21,4.19-5.01,1.34.21,2.3,2.92.84,4.38-1.05,2.71v49.01h2.3v-19.4h.84v-26.28l2.3-1.46h8.59l2.72,2.09v2.71h5.86v13.77h4.82l.63-2.92v-3.13h3.14v-39l.49-.28v-4.45h7.61v-2.5h13.75v20.37h6.84v4.17h3.14v14.81h2.51v-1.67h3.14v-2.92h3.14v4.17h4.19v2.5h1.68v-1.67h4.82v1.88h8.59v-16.48l2.93-3.34h1.89v3.54h3.35v-3.34h2.51l2.3,3.34v-3.54h3.14v4.59h1.26v31.28h1.89v4.8h3.14v-1.46h1.68v-1.88h2.93v1.88h1.05v-25.65h12.15v18.77h2.72s2.51-5.01,6.7-5.01c0,0,.42-2.09,2.09-1.88h4.82v102.37"/>
        <path class="st4" d="M88.72,717.33v-14.08h-1.24v-5.28h-4.25v-4.16h-2v-49.35h-1.89s0-.04,0-.06v-12.77c0-.55-.26-1.04-.66-1.39v-1.43c0-.61-.32-1.16-.82-1.51v-.89c0-.86-.62-1.58-1.48-1.83v-2.14c0-.73-.46-1.37-1.12-1.69v-1.54c0-.65-.36-1.22-.9-1.57.03-.11.06-.23.06-.36v-1.28c0-.47-.27-.88-.68-1.15v-2.64c0-.46-.34-.85-.81-.97l-.09-3.47-.35-7.98-.23,7.98v3.48c-.44.14-.77.51-.77.96v2.64c-.42.27-.68.68-.68,1.15v1.28c0,.12.02.24.06.36-.55.35-.9.92-.9,1.57v1.54c-.67.32-1.12.96-1.12,1.69v2.14c-.86.25-1.48.97-1.48,1.83v.89c-.5.35-.82.9-.82,1.51v1.43c-.41.35-.66.84-.66,1.39v12.77s0,.04,0,.06h-1.89v49.35h-2v4.16h-4.25v5.28h-1.24v14.08h-2.57v30.4h37.35v-30.4h-2.57Z"/>
        <path class="st4" d="M147.92,749.19v-25.13h-5.78v-16.75h-2.74v-71.64h-2.17v-15.42h-2.31v-9.64h-2.6v-2.6h-1.3v-1.16h-1.01v-2.6h-.65c-.64-3.91-1.89-12.2-1.83-16.69h.47v-1.93h-1.21c.38-.35.63-.84.63-1.4,0-.85-.57-1.57-1.35-1.8l-.49-16.33-.7,16.36c-.72.27-1.23.95-1.23,1.77,0,.56.25,1.05.63,1.4h-1.21v1.93h.47c.05,5.57-1.01,13.12-1.57,16.69h-.91v2.6h-1.01v1.16h-1.3v2.6h-2.6v9.64h-2.31v15.42h-2.17v71.64h-2.74v16.75h-5.78v25.13h-8.52v8.67h61.82v-8.67h-8.52Z"/>
        <path class="st4" d="M382.51,727.38c.02,1.15,0,1.22,0,1.22h.66v2.42l.19.13v7.23h.38v-4.47h.38v.61h.38v-1.13l.47-.05.95-1.13,2.08.05.52.66.19.99-.24.61v11.07h.52v-4.38h.19v-5.93l.52-.33h1.94l.62.47v.61h1.32v3.11h1.09l.14-.66v-.71h.71v-8.81l.11-.06v-1h1.72v-.57h3.11v4.6h1.55v.94h.71v3.34h.57v-.38h.71v-.66h.71v.94h.95v.57h.38v-.38h1.09v.42h1.94v-3.72l.66-.75h.43v.8h.76v-.75h.57l.52.75v-.8h.71v1.04h.28v7.06h.43v1.08h.71v-.33h.38v-.42h.66v.42h.24v-5.79h2.74v4.24h.61s.57-1.13,1.51-1.13c0,0,.09-.47.47-.42h1.09v23.12h-90.8v-25.69h.38l.13-3.89h.63v-1.13h.82v-2.51h.57v-.38h5.05v.82h.38v1.63h.44v-1.38h.38v-.38h.95v-.82h.57v.44h.5v.63h1.45v3.14h.38v-8.29h.57v1.63h.88v-1h4.04v.82h.32v-1.32h.38v8.6h1.07v-2.64h.44v-4.96h.38v-2.2h2.84v1.44h.88v3.27h.44v-3.89h1.2v-1.57h2.84v2.01h.57v5.59h.5v3.08h2.65v.5h1.07v-.57h.69v.31h.5v1.07h.63v6.47h.88v-.82h.5v1.32h.44v-.38h.76v-.44h.44v-.57h.38v-.69h.76v1h.32v-3.77h2.21l.38.31h.95v3.52s.41-.22.5.28v.59h.28v-.71h.59v-.8h.64v.38h.8v-.71h1.75v-7.33l.14-.14v-2.45h.43v-1.08l2.84-.09Z"/>
        <line class="st4" x1="758.99" y1="604.3" x2="760.46" y2="604.3"/>
        <line class="st4" x1="754.03" y1="604.38" x2="755.57" y2="604.38"/>
        <path class="st4" d="M571.8,742.91v-9.05c2.62-4.58,5.24-.24,5.24-.24v19.3l4.36.04.03-5.94,5.52-4.35h5.8l5.05,4.29-.05,6.2,3.13-.12.47-1.66v-4.85h.62v2.64l.62-2.19c-.12-.3-.19-.64-.19-.99,0-1.23.78-2.22,1.75-2.22s1.75,1,1.75,2.22c0,.39-.08.75-.22,1.07l1.66,5.86h2.8v-4.29h5.24l.06-3.21,4.3-7.79,4.42,7.66v10.48h4.68v-9.77l2.65-.04.09-4.69-.69-.04,4.3-7.62,4.3,7.62-1.18.04-.06,11.27c.3-1.97,1.67-3.45,3.3-3.45,1.47,0,2.72,1.21,3.18,2.89v-2.66l3.37-2.14,4.32.03-.02-2.18h0v-4.26h1.17v2.09l.51-.93h2.86v-2.74h-.82l2.22-2.83h.05l2.22,2.83h-.65v2.74h2.63l.09,3.57,2.8.06v3.94s1.64.12,1.64.12v-5.8l2.56-.16c-.37-3.42,1.87-3.1,1.87-3.1,2.87-5.48,5.42-.08,5.42-.08,2.06.24,1.68,3.18,1.68,3.18l2.56.16.06,3.26h2.43l.19-2.14,1.37-2.22,3.93.08.06-1.43,2.31,3.57-.12,6.19c3.12-3.1,6.11.32,6.11.32l-.13-9.77,5.49-8.82,4.92,8.58.06,4.68,1.75-.08.06-6.51c2.68-.79,3.43-4.29,3.43-4.29.44,3.73,3.49,4.37,3.49,4.37l.12,3.41h2.43c1.31-2.06,2.87-.16,2.87-.16h3.18v-9.05c2.62-4.58,5.24-.24,5.24-.24v19.3l4.36.04.03-5.94,5.52-4.35h5.8l5.05,4.29-.05,6.2,3.13-.12.47-1.66v-4.85h.62v2.64l.61-2.19c-.12-.3-.18-.64-.18-.99,0-1.23.78-2.22,1.74-2.22s1.75,1,1.75,2.22c0,.39-.08.75-.22,1.07l1.65,5.83v21.47h-191.53v-31.45h2.57Z"/>
        <path class="st4" d="M721.72,753.6v-9.05c2.62-4.58,5.24-.24,5.24-.24v19.3l4.36.04.03-5.94,5.52-4.35h5.8l5.05,4.29-.05,6.2,3.13-.12.47-1.66v-4.85h.62v2.64l.62-2.19c-.12-.3-.19-.64-.19-.99,0-1.23.78-2.22,1.75-2.22s1.75,1,1.75,2.22c0,.39-.08.75-.22,1.07l1.66,5.86h2.8v-4.29h5.24l.06-3.21,4.3-7.79,4.42,7.66v10.48h4.68v-9.77l2.65-.04.09-4.69-.69-.04,4.3-7.62,4.3,7.62-1.18.04-.06,11.27c.3-1.97,1.67-3.45,3.3-3.45,1.47,0,2.72,1.21,3.18,2.89v-2.66l3.37-2.14,4.32.03-.02-2.18h0v-4.26h1.17v2.09l.51-.93h2.86v-2.74h-.82l2.22-2.83h.05l2.22,2.83h-.65v2.74h2.63l.09,3.57,2.8.06v3.94s1.64.12,1.64.12v-5.8l2.56-.16c-.37-3.42,1.87-3.1,1.87-3.1,2.87-5.48,5.42-.08,5.42-.08,2.06.24,1.68,3.18,1.68,3.18l2.56.16.06,3.26h2.43l.19-2.14,1.37-2.22,3.93.08.06-1.43,2.31,3.57-.12,6.19c3.12-3.1,6.11.32,6.11.32l-.13-9.77,5.49-8.82,4.92,8.58.06,4.68,1.75-.08.06-6.51c2.68-.79,3.43-4.29,3.43-4.29.44,3.73,3.49,4.37,3.49,4.37l.12,3.41h2.43c1.31-2.06,2.87-.16,2.87-.16h3.18v-9.05c2.62-4.58,5.24-.24,5.24-.24v19.3l4.36.04.03-5.94,5.52-4.35h5.8l5.05,4.29-.05,6.2,3.13-.12.47-1.66v-4.85h.62v2.64l.61-2.19c-.12-.3-.18-.64-.18-.99,0-1.23.78-2.22,1.74-2.22s1.75,1,1.75,2.22c0,.39-.08.75-.22,1.07l1.65,5.83v21.47h-191.53v-31.45h2.57Z"/>
        <path class="st4" d="M639.28,696.99"/>
      </g>
      <polygon class="st5" points="82.72 734.77 82.72 701.88 84.6 701.88 84.6 700.4 86.78 700.4 86.78 698.43 88.66 698.43 88.66 700.01 91.24 700.01 91.24 686.68 92.03 686.68 92.03 679.77 92.72 679.77 92.72 676.22 94.21 678.39 94.21 679.97 95.59 679.97 96.78 680.86 96.78 679.28 100.45 679.28 100.45 696.26 101.93 696.26 101.93 697.24 102.83 697.24 102.83 696.26 104.02 696.26 104.02 698.33 105.3 698.33 105.3 677.4 106.99 677.4 106.99 676.12 107.58 676.12 107.58 673.16 110.85 673.16 110.85 677.53 111.25 677.53 111.25 682.12 111.54 682.12 111.54 696.65 114.81 696.65 114.81 693.69 122.94 693.69 122.94 695.07 124.82 695.07 124.82 697.64 125.81 697.64 125.81 706.62 127.49 706.62 127.49 668.13 134.13 668.13 134.13 678.49 136.61 678.49 138.69 675.53 144.33 675.53 144.33 678.59 151.96 678.59 151.96 696.65 152.95 696.65 152.95 697.54 154.24 697.54 154.24 698.82 151.86 698.82 151.86 703.27 154.83 703.27 154.83 705.53 157.31 705.53 157.31 707.21 159.09 707.21 159.09 705.93 160.88 705.93 160.88 737.68 82.72 734.77"/>
      <polygon class="st5" points="184.25 766.5 160.88 766.5 166.63 698.98 164.47 656.54 183.18 656.54 180.66 716.24 184.25 766.5"/>
      <polygon points="89.48 764.05 78.98 764.05 10.51 764.05 10.51 858.9 465.71 858.9 465.71 764.05 89.48 764.05"/>
      <path class="st3" d="M283.64,713.32h2.96s0-1.86,0-1.86h-3.32v-2.48s-2.87,0-2.87,0v1.98h-3.93v-16.73s-1.21,0-1.21,0v-8.67s-1.06,0-1.06,0v-4.46s-2.27,2.73-2.27,2.73v1.98h-2.12s-1.81,1.12-1.81,1.12v-1.98s-5.59,0-5.59,0v21.31h-2.27s0,1.24,0,1.24h-1.36v-1.24s-1.81,0-1.81,0v2.6h-1.96v-26.27s-2.57,0-2.57,0v-1.61s-.91,0-.91,0v-3.72s-4.99,0-4.99,0v5.48h-.6s0,5.76,0,5.76h-.45s0,18.24,0,18.24h-4.99v-3.72s-12.39,0-12.39,0v1.74h-2.87s0,3.22,0,3.22h-1.51s0,11.27,0,11.27h-2.57v-48.32s-10.12,0-10.12,0v13.01h-3.78s-3.17-3.72-3.17-3.72h-8.61s0,3.84,0,3.84h-11.63s0,22.67,0,22.67h-1.51s0,1.12,0,1.12h-1.96s0,1.61,0,1.61h3.63v5.58h-4.53s0,2.85,0,2.85h-3.78s0,2.11,0,2.11h-2.72v-1.61s-2.72,0-2.72,0v-1.61s-4.99,0-4.99,0v1.73h-1.21v-5.58s-4.99,0-4.99,0v2.23h-1.96s0,2.23,0,2.23h-1.96v-9.91s-2.27,0-2.27,0v-1.12s-4.08,0-4.08,0v.74h-1.06s0,1.49,0,1.49h-1.81s0,6.32,0,6.32h-15.87v-2.11s-3.78,0-3.78,0v-12.14s-5.59,0-5.59,0v11.52h-2.57s0,2.97,0,2.97h-1.81s0,1.73,0,1.73l-1.21.5v-1.73s-3.93,0-3.93,0v1.61h-3.17s0,3.34,0,3.34h-2.12v-6.57s-2.27,0-2.27,0v-1.98s-2.11,0-2.11,0v2.23h-1.97s0,3.96,0,3.96h-10.73v-2.97s-2.57,0-2.57,0v-1.74s-1.96,0-1.96,0v-3.22s-2.87,0-2.87,0v3.22h-1.81v-10.78s-2.11-3.84-2.11-3.84h-2.87s0,1.49,0,1.49h-6.35v-1.61s-2.72,0-2.72,0v2.23h-1.96s0,1.49,0,1.49h-2.72s0,9.54,0,9.54h2.14v1.28h-1.21s0,.74,0,.74h-4.33s0,1.07,0,1.07h-2.42v-9s-2.22,0-2.22,0v-1.32s-2.42,0-2.42,0v2.48h-1.71s0,2.02,0,2.02h-1.11s0,3.22,0,3.22h-1.96v-6.94s-2.57,0-2.57,0v-3.72s-2.72,0-2.72,0v3.96h-3.78s0,9.04,0,9.04h-2.27v-16.33s-1.81-.25-1.96-.99c0,0-1.51-2.29-3.02.06,0,0-.91,1.05-2.19,1.3v2.04h-3.1v-1.51s-3.93,0-3.93,0v-.83s-2.22,0-2.22,0v-4.29s-1.51,0-1.51,0v-4.46s-4.13,0-4.13,0v-2.64s-8.96,8.3-8.96,8.3l-.63,59.03h281.01s0-41.28,0-41.28Z"/>
      <path class="st4" d="M-2.78,737.72H.12v-1.53h3.36v-2.04h2.9v1.63l17.35-.22v-21.26h1.22v-7.15h1.07v-3.68l2.29,2.25v1.63h2.14l1.83.92v-1.63h5.65v17.56h2.29v1.02h1.37v-1.02h1.83v2.14h1.99v-21.65h2.6v-1.33h.92v-3.06h5.04v4.52h.61v4.75h.46v15.04h5.04v-3.06h12.53v1.43h2.9v2.65h1.53v9.29h2.6v-39.82h10.24v10.72h3.82l3.21-3.06h8.71v3.17h11.76v18.69h1.53v.92h1.99v1.33h-3.67v4.6h4.58v2.35h3.82v1.74h2.75v-1.33h2.75v-1.33h5.04v1.43h1.22v-4.6h5.04v1.84h1.99v1.84h1.99v-8.17h2.29v-.92h4.12v.61h1.07v1.22h1.83v5.21h16.04v-1.74h3.82v-10.01h5.65v9.5h2.6v2.45h1.83v1.43l1.22.41v-1.43h3.97v1.33h3.21v2.76h2.14v-5.41h2.29v-1.63h2.14v1.84h1.99v3.27h10.85v-2.45h2.6v-1.43h1.99v-2.65h2.9v2.65h1.83v-8.88l2.14-3.17h2.9v1.23h6.42v-1.33h2.75v1.84h1.99v1.23h2.75v7.86h5.35v1.06h1.22v.61h4.38v.89h2.45v-7.42h2.24v-1.09h2.44v2.04h1.73v1.67h1.12v2.65h1.99v-5.72h2.6v-3.06h2.75v3.27h3.82v7.45h2.29v-5.92s1.83-.2,1.99-.82c0,0,1.53-1.89,3.06.05,0,0,.92.87,2.22,1.07v1.69h3.13v-1.24h3.97v-.68h2.24v-3.54h1.53v-3.68h4.18v-2.18h5.6v47.95H-5.67l2.89-26.33Z"/>
      <path class="st1" d="M229.48,751.43h2.23v-1.43h2.58v-1.9h2.23v1.52l13.34-.2v-19.83h.94v-6.67h.82v-3.43l1.76,2.1v1.52h1.64l1.41.86v-1.52h4.35v16.38h1.76v.95h1.06v-.95h1.41v2h1.53v-20.19h2v-1.24h.7v-2.86h3.88v4.21h.47v4.43h.35v14.02h3.88v-2.86h9.63v1.33h2.23v2.48h1.17v8.67h8v-27.32h1.87v.17h2.94l2.47-2.86h6.7v2.95h.09v17.43h10.13v.86h1.53v1.24h-2.82v4.29h3.52v2.19h2.94v1.62h2.11v-1.24h2.11v-1.24h3.88v1.33h.94v-4.29h3.88v1.71h1.53v1.71h1.53v-7.62h1.76v-.86h3.17v.57h.82v1.14h1.41v4.86h12.34v-1.62h2.94v-9.33h4.35v8.86h2v2.29h1.41v1.33l.94.38v-1.33h3.05v1.24h2.47v2.57h1.64v-5.05h1.76v-1.52h1.64v1.71h1.53v3.05h8.34v-2.29h2v-1.33h1.53v-2.48h2.23v2.48h1.41v-8.29l1.64-2.95h2.23v1.14h4.93v-1.24h2.12v1.71h1.53v1.14h2.11v7.33h4.11v.98h.94v.57h3.37v.83h1.88v-6.92h1.72v-1.02h1.88v1.9h1.33v1.56h.86v2.48h1.53v-5.33h2v-2.86h2.11v3.05h2.94v6.95h1.76v-5.52s1.41-.19,1.53-.76c0,0,1.17-1.76,2.35.05,0,0,.7.81,1.7,1v1.57h2.41v-1.16h3.05v-.63h1.72v-3.3h1.17v-3.43h3.21v-2.03h5.64v44.72h-239.48l2.22-24.56Z"/>
      <path class="st2" d="M451.97,764.68v-20.11c-3.2-4.57-6.4-.24-6.4-.24v19.25l-5.33.04-.04-5.92-6.74-4.34h-7.08l-6.17,4.28.06,6.18-3.83-.12-.57-1.65v-4.84h-.76v2.64l-.75-2.18c.14-.3.23-.63.23-.99,0-1.23-.96-2.22-2.13-2.22s-2.13.99-2.13,2.22c0,.39.1.75.26,1.07l-2.02,5.84h-3.43v-4.28h-6.4l-.08-3.2-5.26-7.77-5.4,7.64v10.46h-5.71v-9.74l-3.24-.04-.11-4.67.84-.04-5.26-7.61-5.26,7.61,1.45.04.07,11.25c-.37-1.96-2.04-3.44-4.03-3.44-1.8,0-3.33,1.21-3.89,2.88v-2.65l-4.11-2.14-5.29.03.03-2.17h0v-4.24h-1.43v2.08l-.62-.93h-3.5v-2.73h1l-2.71-2.82h-.06l-2.71,2.82h.8v2.73h-3.22l-.11,3.57-3.43.06v3.93s-2.01.12-2.01.12v-5.78l-3.12-.16c.46-3.41-2.29-3.09-2.29-3.09-3.5-5.47-6.63-.08-6.63-.08-2.51.24-2.06,3.17-2.06,3.17l-3.12.16-.08,3.25h-2.97l-.23-2.14-1.68-2.22-4.8.08-.08-1.43-2.82,3.57.15,6.18c-3.81-3.09-7.47.32-7.47.32l.15-9.74-6.7-8.79-6.02,8.56-.08,4.67-2.13-.08-.08-6.5c-3.28-.79-4.19-4.28-4.19-4.28-.53,3.72-4.27,4.36-4.27,4.36l-.15,3.41h-2.97c-1.6-2.06-3.5-.16-3.5-.16h-3.89v-9.03c-3.2-4.57-6.4-.24-6.4-.24v19.25l-5.33.04-.04-5.92-5.05-3.25v-7.19h-1.58v-1.24h-1.83v-1.66h-1.58v1.33h-2.16v-11.18h-.67v-5.8h-.58v-2.98l-1.25,1.82v1.33h-1.16l-1,.75v-1.33h-3.08v14.25h-1.25v.83h-.75v-.83h-1v1.74h-1.08v-17.56h-1.41v-1.08h-.5v-2.48h-2.74v3.66h-.33v3.85h-.25v12.2h-2.74v-2.48h-6.82v1.16h-1.58v2.15h-.83v7.54h-1.41v-32.3h-5.57v8.7h-2.08l-1.75-2.48h-4.74v2.57h-6.4v15.16h-.83v.75h-1.08v1.08h2v3.73h-2.49v1.9h-2.08v1.41h-1.5v-1.08h-1.5v-1.08h-2.74v1.16h-.66v-3.73h-2.74v1.49h-1.08v1.49h-1.08v-6.63h-1.25v-.75h-2.25v.5h-.58v.99h-1v4.22h-8.73v-1.41h-2.08v-8.12h-3.08v7.7h-1.41v1.99h-1v1.16l-.66.33v-1.16h-2.16v1.08h-1.75v2.24h-1.16v-4.39h-1.25v-1.32h-1.16v1.49h-1.08v2.65h-5.9v-1.99h-1.41v-1.16h-1.08v-2.15h-1.58v2.15h-1v-7.21l-1.16-2.57h-1.58v.99h-3.49v-1.08h-1.5v1.49h-1.08v.99h-1.5v6.38l-2.91,6.07v.86h-.66v.5h-2.38v.72h-1.33v-6.02h-1.22v-.88h-1.33v1.66h-.94v1.35h-.61v.51l-1.08.03v-3.03h-.27l.03-2.78h-8.23v2.96c-.16.1-.32.28-.49.59h-5.59v.7h-.24v-.69h-.47s0-2.18,0-2.18h-.83v2.18h-4.57v11.32h-.24v-12.44h-7.97v12.44h-.24v-14.84h-7.49v14.84h-.24v-14.84h-7.97v14.84h-.24v-14.83h-7.49v14.83h-.24v-9.21l-6.82-3.68-.04,3.64-4.01-.04v-4.66s-.96-1.24-2.34-1.63v-.09s-.44,0-.44,0c-.24-.03-.49-.03-.74,0l-18.39.06-.04,6.37-5.22-.04v-4.66s-3.13-4.08-6.27.22v.94h-3.08v18.49h.42v52.85h211.41v-26.5h234.07v-27.66h-3.14Z"/>
    </g>
  </g>
</svg>